<svg width="20" height="21" viewBox="0 0 20 21" fill="none" xmlns="http://www.w3.org/2000/svg">
<path d="M17.5 13.8333C17.5 16.19 17.5 17.3692 16.7675 18.1008C16.0359 18.8333 14.8567 18.8333 12.5 18.8333H7.50002C5.14335 18.8333 3.96419 18.8333 3.23252 18.1008C2.50002 17.3692 2.50002 16.19 2.50002 13.8333V7.16666C2.50002 4.80999 2.50002 3.63082 3.23252 2.89916C3.96419 2.16666 5.14335 2.16666 7.50002 2.16666H12.5C14.8567 2.16666 16.0359 2.16666 16.7675 2.89916C17.5 3.63082 17.5 4.80999 17.5 7.16666V10.5M6.66669 2.16666V5.49999M6.66669 18.8333V8.83332M1.66669 10.5H3.33335M1.66669 13.8333H3.33335M1.66669 7.16666H3.33335M9.58335 5.91666H13.75M9.58335 8.83332H13.75" stroke="black" stroke-width="1.5625" stroke-linecap="round"/>
</svg>
